USFL
nRows=437
nColumns=2
inDegrees=yes
endheader
time	med_gas_r	
1.43044	 30.518508	
1.46371	 30.507350	
1.49698	 30.484901	
1.53024	 30.502584	
1.56351	 30.502568	
1.59677	 30.511309	
1.63004	 30.503169	
1.66331	 30.519342	
1.69657	 30.565687	
1.72984	 30.524788	
1.7631	 30.506863	
1.79637	 30.516992	
1.82964	 30.579411	
1.8629	 30.495724	
1.89617	 30.554315	
1.92944	 30.565140	
1.9627	 30.687431	
1.99597	 30.795087	
2.02923	 30.985490	
2.0625	 31.055547	
2.09577	 30.933741	
2.12903	 31.002672	
2.1623	 30.941367	
2.19556	 30.674491	
2.22883	 30.528175	
2.2621	 30.630606	
2.29536	 30.677501	
2.32863	 30.669270	
2.3619	 30.738786	
2.39516	 29.851752	
2.42843	 29.793655	
2.46169	 29.713551	
2.49496	 29.682903	
2.52823	 29.685596	
2.56149	 29.767987	
2.59476	 29.811001	
2.62802	 29.734484	
2.66129	 29.681107	
2.69456	 29.723807	
2.72782	 29.757168	
2.76109	 29.739371	
2.79435	 29.769228	
2.82762	 29.777045	
2.86089	 29.778475	
2.89415	 29.704015	
2.92742	 29.773414	
2.96069	 29.664188	
2.99395	 29.713658	
3.02722	 29.774235	
3.06048	 29.905074	
3.09375	 29.826269	
3.12702	 29.847533	
3.16028	 29.929268	
3.19355	 29.930185	
3.22681	 29.914312	
3.26008	 29.905327	
3.29335	 29.846502	
3.32661	 29.747539	
3.35988	 29.783196	
3.39315	 29.811363	
3.42641	 29.786144	
3.45968	 29.799042	
3.49294	 29.814409	
3.52621	 29.786264	
3.55948	 29.799941	
3.59274	 29.929167	
3.62601	 29.911413	
3.65927	 29.865128	
3.69254	 29.857973	
3.72581	 29.867218	
3.75907	 29.918520	
3.79234	 29.874315	
3.8256	 29.822974	
3.85887	 29.615791	
3.89214	 29.452159	
3.9254	 28.053531	
3.95867	 28.110709	
3.99194	 28.116216	
4.0252	 28.153249	
4.05847	 28.180431	
4.09173	 28.171792	
4.125	 28.146465	
4.15827	 28.139417	
4.19153	 28.147434	
4.2248	 27.882920	
4.25806	 27.988513	
4.29133	 28.018075	
4.3246	 27.969188	
4.35786	 28.021258	
4.39113	 27.938884	
4.4244	 27.910661	
4.45766	 27.981749	
4.49093	 27.981664	
4.52419	 27.976733	
4.55746	 27.989721	
4.59073	 28.016707	
4.62399	 28.027961	
4.65726	 28.012817	
4.69052	 28.048216	
4.72379	 28.056247	
4.75706	 28.067436	
4.79032	 28.053380	
4.82359	 28.048257	
4.85685	 28.042386	
4.89012	 28.019882	
4.92339	 28.026805	
4.95665	 28.042096	
4.98992	 28.055750	
5.02319	 28.036722	
5.05645	 28.046788	
5.08972	 28.034611	
5.12298	 28.032422	
5.15625	 28.045023	
5.18952	 28.054134	
5.22278	 28.056359	
5.25605	 28.029782	
5.28931	 28.042516	
5.32258	 28.037922	
5.35585	 28.044711	
5.38911	 28.007680	
5.42238	 27.976634	
5.45565	 27.996164	
5.48891	 28.013690	
5.52218	 28.029874	
5.55544	 28.010518	
5.58871	 27.997353	
5.62198	 28.006765	
5.65524	 28.021702	
5.68851	 28.010050	
5.72177	 28.023489	
5.75504	 27.999053	
5.78831	 28.002847	
5.82157	 27.986769	
5.85484	 27.945280	
5.8881	 27.959578	
5.92137	 27.948186	
5.95464	 27.950604	
5.9879	 27.964006	
6.02117	 27.943185	
6.05444	 28.784455	
6.0877	 28.764517	
6.12097	 28.763079	
6.15423	 28.757657	
6.1875	 28.760052	
6.22077	 28.752588	
6.25403	 28.750140	
6.2873	 28.753411	
6.32056	 28.769988	
6.35383	 28.803449	
6.3871	 28.807139	
6.42036	 28.825136	
6.45363	 28.824714	
6.4869	 28.820316	
6.52016	 28.815526	
6.55343	 28.815346	
6.58669	 28.817941	
6.61996	 28.773445	
6.65323	 28.777598	
6.68649	 28.797337	
6.71976	 28.816719	
6.75302	 28.793383	
6.78629	 28.781831	
6.81956	 28.807754	
6.85282	 28.814687	
6.88609	 28.828417	
6.91935	 28.821063	
6.95262	 28.807930	
6.98589	 28.794147	
7.01915	 28.800065	
7.05242	 28.796595	
7.08569	 28.801908	
7.11895	 28.798577	
7.15222	 28.813046	
7.18548	 28.818763	
7.21875	 28.846535	
7.25202	 28.821871	
7.28528	 28.892158	
7.31855	 28.904136	
7.35181	 28.912593	
7.38508	 28.931941	
7.41835	 28.924725	
7.45161	 28.920672	
7.48488	 28.938329	
7.51815	 28.911374	
7.55141	 28.967116	
7.58468	 28.963199	
7.61794	 28.959658	
7.65121	 28.972638	
7.68448	 28.974841	
7.71774	 28.949374	
7.75101	 28.919417	
7.78427	 28.893704	
7.81754	 28.876841	
7.85081	 28.877373	
7.88407	 28.900047	
7.91734	 28.845670	
7.9506	 28.872147	
7.98387	 28.916624	
8.01714	 28.891202	
8.0504	 28.853547	
8.08367	 28.841272	
8.11694	 28.916848	
8.1502	 28.904102	
8.18347	 28.897890	
8.21673	 28.865336	
8.25	 28.867453	
8.28327	 28.835817	
8.31653	 28.825847	
8.3498	 28.814283	
8.38306	 28.801203	
8.41633	 28.769387	
8.4496	 28.808497	
8.48286	 28.751582	
8.51613	 28.713039	
8.5494	 28.702124	
8.58266	 28.705061	
8.61593	 28.676454	
8.64919	 28.701088	
8.68246	 28.695786	
8.71573	 28.693351	
8.74899	 28.694295	
8.78226	 28.689098	
8.81552	 28.677906	
8.84879	 28.679692	
8.88206	 28.661269	
8.91532	 28.537324	
8.94859	 28.583794	
8.98185	 28.699379	
9.01512	 28.704522	
9.04839	 28.727606	
9.08165	 28.738746	
9.11492	 28.714324	
9.14819	 28.678601	
9.18145	 28.692112	
9.21472	 28.681325	
9.24798	 28.686527	
9.28125	 28.684508	
9.31452	 28.679180	
9.34778	 28.680971	
9.38105	 28.684439	
9.41431	 28.683185	
9.44758	 28.680906	
9.48085	 29.041762	
9.51411	 29.062009	
9.54738	 29.061499	
9.58065	 29.047870	
9.61391	 29.029043	
9.64718	 28.993404	
9.68044	 29.018361	
9.71371	 28.982478	
9.74698	 28.977292	
9.78024	 28.976214	
9.81351	 28.980157	
9.84677	 28.893331	
9.88004	 28.825836	
9.91331	 28.796816	
9.94657	 28.799314	
9.97984	 28.804168	
10.0131	 28.804212	
10.0464	 28.812537	
10.0796	 28.764401	
10.1129	 28.836726	
10.1462	 28.820442	
10.1794	 28.822399	
10.2127	 28.804425	
10.246	 28.791452	
10.2792	 28.760159	
10.3125	 28.752714	
10.3458	 28.728106	
10.379	 28.682472	
10.4123	 28.654225	
10.4456	 28.597898	
10.4788	 28.649412	
10.5121	 28.669180	
10.5454	 28.654075	
10.5786	 28.646227	
10.6119	 28.682501	
10.6452	 28.700283	
10.6784	 28.641470	
10.7117	 28.642945	
10.745	 28.647821	
10.7782	 28.548575	
10.8115	 28.509967	
10.8448	 28.508841	
10.878	 28.507601	
10.9113	 28.489077	
10.9446	 28.487708	
10.9778	 28.531030	
11.0111	 28.524325	
11.0444	 28.522873	
11.0776	 28.494670	
11.1109	 28.455797	
11.1442	 28.474490	
11.1774	 28.463788	
11.2107	 28.447496	
11.244	 28.482586	
11.2772	 28.481406	
11.3105	 28.473159	
11.3437	 28.476477	
11.377	 28.486524	
11.4103	 28.469235	
11.4435	 28.433368	
11.4768	 28.407446	
11.5101	 28.453352	
11.5433	 28.382366	
11.5766	 28.450271	
11.6099	 28.433763	
11.6431	 28.435024	
11.6764	 28.432390	
11.7097	 28.441276	
11.7429	 28.437178	
11.7762	 28.425762	
11.8095	 28.439029	
11.8427	 28.453008	
11.876	 28.482915	
11.9093	 28.512702	
11.9425	 28.484782	
11.9758	 28.484245	
12.0091	 28.516548	
12.0423	 28.508316	
12.0756	 28.496801	
12.1089	 28.511458	
12.1421	 28.518800	
12.1754	 28.497733	
12.2087	 28.518564	
12.2419	 28.548936	
12.2752	 28.513197	
12.3085	 28.568286	
12.3417	 28.557640	
12.375	 28.507432	
12.4083	 28.535985	
12.4415	 28.555359	
12.4748	 28.569535	
12.5081	 28.577070	
12.5413	 28.616778	
12.5746	 28.620717	
12.6079	 28.618324	
12.6411	 28.625461	
12.6744	 28.648947	
12.7077	 28.669481	
12.7409	 28.681697	
12.7742	 28.661797	
12.8075	 28.652568	
12.8407	 28.659585	
12.874	 28.640766	
12.9073	 28.662285	
12.9405	 28.623597	
12.9738	 28.617990	
13.0071	 28.612907	
13.0403	 28.607780	
13.0736	 28.603894	
13.1069	 28.603379	
13.1401	 28.608769	
13.1734	 28.611349	
13.2067	 28.601287	
13.2399	 28.618321	
13.2732	 28.708474	
13.3065	 28.734608	
13.3397	 28.808331	
13.373	 28.819711	
13.4062	 28.842676	
13.4395	 28.853062	
13.4728	 28.811910	
13.506	 28.849185	
13.5393	 28.863838	
13.5726	 28.844928	
13.6058	 28.865569	
13.6391	 28.895084	
13.6724	 28.872302	
13.7056	 28.885437	
13.7389	 28.883743	
13.7722	 28.885424	
13.8054	 28.883941	
13.8387	 28.883561	
13.872	 28.880905	
13.9052	 28.875841	
13.9385	 28.896382	
13.9718	 28.866274	
14.005	 28.845597	
14.0383	 28.878883	
14.0716	 28.915202	
14.1048	 28.965921	
14.1381	 28.958940	
14.1714	 28.952554	
14.2046	 29.002646	
14.2379	 28.928038	
14.2712	 28.908993	
14.3044	 28.946547	
14.3377	 28.911835	
14.371	 28.821931	
14.4042	 28.846749	
14.4375	 28.899268	
14.4708	 28.936152	
14.504	 28.933992	
14.5373	 28.910577	
14.5706	 28.878882	
14.6038	 28.947292	
14.6371	 28.981371	
14.6704	 28.929929	
14.7036	 28.999638	
14.7369	 29.091479	
14.7702	 29.075766	
14.8034	 29.106099	
14.8367	 29.050332	
14.87	 29.101000	
14.9032	 29.114090	
14.9365	 29.077553	
14.9698	 29.129635	
15.003	 29.176722	
15.0363	 29.218967	
15.0696	 29.175495	
15.1028	 29.287403	
15.1361	 29.223237	
15.1694	 29.192690	
15.2026	 29.270233	
15.2359	 29.249777	
15.2692	 29.197171	
15.3024	 29.163724	
15.3357	 29.166649	
15.369	 29.114409	
15.4022	 29.060482	
15.4355	 29.167277	
15.4687	 29.116512	
15.502	 29.138300	
15.5353	 29.169249	
15.5685	 29.204527	
15.6018	 29.132919	
15.6351	 29.113519	
15.6683	 29.214857	
15.7016	 29.161190	
15.7349	 29.142858	
15.7681	 29.156429	
15.8014	 29.123535	
15.8347	 29.115342	
15.8679	 29.091312	
15.9012	 29.068003	
15.9345	 29.066813	
